<svg xmlns="http://www.w3.org/2000/svg" xmlns:xlink="http://www.w3.org/1999/xlink" viewBox="0 0 454.15 75.91"><defs><style>.cls-1{fill:none;}.cls-2{fill:#0545b1;}.cls-3{clip-path:url(#clip-path);}.cls-4{fill:#00bbed;}.cls-5{fill:#fff;}.cls-6{fill:#1ac62f;}.cls-7{fill:#f2338a;}.cls-8{fill:#1a1919;}</style><clipPath id="clip-path"><path class="cls-1" d="M387.14,65A108.54,108.54,0,0,1,385,43.19a100.16,100.16,0,0,1,1.33-17.07,20.93,20.93,0,0,1,.71-2.77,11.1,11.1,0,0,1,6.35-6.74A28.88,28.88,0,0,1,398.26,15a83.71,83.71,0,0,1,19.15-2.37h.45A78.06,78.06,0,0,1,436.77,15a49.58,49.58,0,0,1,5.15,1.68s5.07,2,6.42,6.67A24.76,24.76,0,0,1,449,26a114.94,114.94,0,0,1,1.36,17.21,110.06,110.06,0,0,1-2.2,21.93v0a10.05,10.05,0,0,1-7.66,7.75l-.36.07a115.36,115.36,0,0,1-22.46,2.2A115.39,115.39,0,0,1,395.26,73l-.5-.1A10,10,0,0,1,389,69.2,8.83,8.83,0,0,1,387.14,65Z"/></clipPath></defs><title>Asset 1</title><g id="Layer_2" data-name="Layer 2"><g id="Layer_1-2" data-name="Layer 1"><g id="가로형"><path class="cls-2" d="M48,15.46S47.77,2.21,63,2.06H77.17c3,0,5.63,2.13,5.63,4.74s-2.58,4.8-5.63,4.8H70.59c-4.37,0-4,3.18-4,3.18V21h7.94c3.15,0,5.73,2,5.73,4.62S78,30.28,75,30.28H66.6V61.7c0,4.42-3.82,8.35-9.14,8.35S48,66.47,48,62Z"/><path class="cls-2" d="M100.81,61.63c0,4.78-3.83,8.42-9.13,8.42S82.13,66.41,82.13,62V33.69s0-12.48,15.43-12.48h12.22c6.4,0,6.4,4.9,6.4,4.9s0,4.71-6,4.71H104.8c-4,0-4,3.09-4,3.09Z"/><path class="cls-2" d="M191.56,20.87c15.95,0,15.95,12.81,15.95,12.81V47c0,2.67-2.59,4.63-5.74,4.63H184.18v5.7s.18,3,4.24,3l9.86,0c3.17,0,5.66,2.11,5.66,4.78s-2.57,5-5.66,5H181c-15.21,0-15.21-12.64-15.21-12.64V33.68s.12-12.67,15.32-12.81Zm-3.06,10c-4.14,0-4.14,3-4.14,3v8.25h11.77v-8s0-3.23-3.73-3.23Z"/><path class="cls-2" d="M247.47,60.51c3.16-.08,6,2.38,6,5.05s-2.83,4.49-6,4.49H222.63c-5.23,0-9-3.16-9-7.64V28.94c0-4.43,4.31-8.07,9.55-8.07h25.25c3.18,0,5.66,2.11,5.66,4.76s-2.48,4.64-5.66,4.64H235a2.05,2.05,0,0,0-2.31,2V58.46s-.16,2,2.33,2Z"/><path class="cls-2" d="M296.66,33.58V61.83c0,4.5-4.34,8.22-9.66,8.22H270.89C255,70.05,255,57.26,255,57.26V50.93s1-11.56,15.88-11.5h6.81V33.64s0-3-3.74-3h-8.64c-3.16,0-6.22-1.86-6.22-4.53s2.9-5.23,6-5.23h16.3C296.66,21,296.66,33.58,296.66,33.58ZM270.12,60.36h7.55V49.09h-7.55c-4.12,0-3.72,5.63-3.72,5.63S266,60.36,270.12,60.36Z"/><path class="cls-2" d="M341,8.48s0-4.32-5.72-4.32H295.61c-5.73,0-5.73,4.19-5.73,4.19s0,4.15,5.36,4.15h8.3c3.57,0,3.57,2.71,3.57,2.71V40.79c0,4.2,3.42,7.41,8.17,7.41s8.53-3.21,8.53-7.1V15.17c.06-.59.51-2.55,3.55-2.55h8.29C341,12.62,341,8.48,341,8.48Z"/><path class="cls-2" d="M41.68,33.56V61.83c0,4.5-4.35,8.22-9.66,8.22H15.89C0,70.05,0,57.25,0,57.25V50.92S1,39.36,15.89,39.41H22.7V33.62s0-3-3.74-3H10.32c-3.16,0-6.24-1.85-6.24-4.53S7,20.86,10.15,20.86H26.46C41.68,20.94,41.68,33.56,41.68,33.56ZM15.12,60.35h7.55V49.09H15.12c-4.27,0-3.72,5.63-3.72,5.63S11,60.35,15.12,60.35Z"/><path class="cls-2" d="M143.75,20.87c15.95,0,15.95,12.81,15.95,12.81V47c0,2.67-2.59,4.63-5.74,4.63H136.38v5.7s.17,3,4.23,3l9.86,0c3.17,0,5.66,2.11,5.66,4.78s-2.57,5-5.66,5H133.15c-15.21,0-15.21-12.64-15.21-12.64V33.68s.12-12.67,15.32-12.81Zm-3.06,10c-4.14,0-4.14,3-4.14,3v8.25h11.77v-8s0-3.23-3.73-3.23Z"/><path class="cls-2" d="M375.9,5.58c-3.73-2.51-9-1.21-11.76,2.91l-15,20.16L343.69,17c-1-2.19-5.32-3.23-7.61-2.17s-3.71,4.35-2.7,6.54l9.92,22.79c.78,1.66,2.54,3,5.33,3.71a9.82,9.82,0,0,0,10-4.17l19-26.11C380.45,13.44,379.64,8.08,375.9,5.58Z"/></g><path class="cls-2" d="M435.22,1.27a2.33,2.33,0,0,1-1.36,3.25l-14.11,6.41a4.66,4.66,0,0,1-4.37-.1l-9.12-4.32a2.34,2.34,0,0,1-.61-3.44h0A2.3,2.3,0,0,1,409,2.81l7,5.64a2.47,2.47,0,0,0,2.19.52A3,3,0,0,0,419,8.6L431.91.33a2.35,2.35,0,0,1,3.31.94Z"/><g class="cls-3"><path class="cls-2" d="M453.24,27.38c-1-7.4-2.7-11.63-12.33-13.81A105.8,105.8,0,0,0,420.77,11c-1.09-.05-2.19-.05-3.29,0a105.71,105.71,0,0,0-20.13,2.58c-7.13,1.62-9.92,4.35-11.29,8.67-.24.76,2.06-.45,1.89.41s.53,12.21.4,13.17c-1,7.29-4.24,7.61-4.24,7.87A134.72,134.72,0,0,0,385,60c1,7.4,2.71,11.62,12.34,13.81,8.68,2,15,1.83,20.13,2.06,1.1,0,2.2,0,3.29,0,5.16-.23,11.45-.1,20.14-2.06,9.63-2.19,11.34-6.41,12.33-13.81a132.48,132.48,0,0,0,.9-16.31c0-.14-1.45-3-2.88-6.78-.14-.37-1.08,1.57-1.22,1.19-1-2.74-1.09-8.12-1.41-10.85C448.58,26.81,453.3,27.81,453.24,27.38Z"/><path class="cls-4" d="M428.87,33.56c-.07-2.56-.1-5.08,0-7.61a5.56,5.56,0,0,1,2.58-4.79,6.39,6.39,0,0,1,5.83-.29c3,1.33,6.82,3.37,6.82,3.37,2.21,1.2,4.07,2.21,6.39,3.72l0,0a2.5,2.5,0,0,1,.35.21,5.63,5.63,0,0,1,.07,9.45h0c-2.2,1.46-4.11,2.85-6.37,4.25a60,60,0,0,1-5.93,3.31,7.37,7.37,0,0,1-6.32.32,6.14,6.14,0,0,1-3-4.94S429,37.77,428.87,33.56Z"/><path class="cls-5" d="M432.75,53.93c-7.31,6.8-23.16,6.81-30.27,0a1.44,1.44,0,0,0-2,2.07c8.21,7.84,25.8,7.85,34.21,0a1.43,1.43,0,1,0-1.95-2.1Z"/><path class="cls-6" d="M426.91,42.6a.2.2,0,0,1,0-.07l0-.43-1-10.77,0-.3a5,5,0,0,0-.13-.69,5.55,5.55,0,0,0-4.43-4.13,5.64,5.64,0,0,0-.93-.08h-5.53a5.29,5.29,0,0,0-.8.06,5.56,5.56,0,0,0-4.56,4.14c0,.18-.08.37-.11.55l-.05.58-1,10.7,0,.25a1.15,1.15,0,0,0,0,.19,1.48,1.48,0,0,0,0,.21,5.56,5.56,0,0,0,4.14,5.37,5.45,5.45,0,0,0,1.41.19h7.51a5.5,5.5,0,0,0,.91-.08,5.57,5.57,0,0,0,4.64-5.48Z"/><path class="cls-7" d="M406.11,36.67c-2.13,7.11-8.5,10.73-15.54,9.51-7.31-1.26-12.59-11.6-8.95-18,3.12-5.46,9.92-9.5,17-7.32C406.17,23.21,408.26,29.49,406.11,36.67Z"/><circle class="cls-8" cx="439.1" cy="33.27" r="4.69"/><circle class="cls-8" cx="395.46" cy="33.27" r="4.69"/></g></g></g></svg>